<svg version="1.1" id="Layer_1" xmlns="http://www.w3.org/2000/svg" xmlns:xlink="http://www.w3.org/1999/xlink" x="0px" y="0px"
	 width="100%" viewBox="0 0 192 192" enable-background="new 0 0 192 192" xml:space="preserve">
<path opacity="1.000000" stroke="none" 
	d="
M193.000000,156.550018 
	C189.282791,157.254898 186.373718,158.224258 183.455139,161.316849 
	C181.194916,163.711838 176.282532,164.932938 172.888718,164.421677 
	C170.909576,164.123550 169.551056,164.010147 167.682938,164.631226 
	C155.605621,168.646378 143.383102,171.673386 130.625778,173.216904 
	C112.244438,175.440857 94.998749,172.160324 78.570145,164.640503 
	C66.269005,159.009949 55.706646,150.599335 46.402721,139.420654 
	C65.531929,129.796494 84.302483,120.352783 103.536064,110.676117 
	C117.435959,136.265274 137.854660,150.868332 167.418777,148.150894 
	C169.334778,146.777374 171.072662,144.914276 173.205994,144.138168 
	C176.975113,142.766953 180.951889,141.855865 184.916031,141.203812 
	C186.000153,141.025467 187.606262,142.217819 188.518463,143.202194 
	C190.044708,144.849228 191.205536,146.834885 192.760071,148.339020 
	C193.000000,150.700012 193.000000,153.400024 193.000000,156.550018 
z"/>
<path opacity="1.000000" stroke="none" 
	d="
M1.000000,55.454109 
	C12.696525,50.147030 24.412207,45.339603 36.084866,40.429897 
	C51.668930,33.874985 67.216843,27.234152 82.786942,20.645966 
	C85.857841,19.346577 87.793991,19.694471 88.040810,23.714527 
	C88.948624,38.500462 90.081505,53.272675 90.961113,68.060081 
	C91.035011,69.302254 90.183182,71.352600 89.205170,71.793442 
	C67.991844,81.355705 46.667412,90.671616 25.460024,100.246803 
	C22.599241,101.538460 21.083965,101.022476 20.108883,98.417137 
	C17.662914,91.881752 15.471160,85.248749 12.905189,78.762604 
	C12.317605,77.277336 10.641929,76.217140 9.449380,74.978302 
	C8.490774,73.982491 7.354490,73.119957 6.562740,72.008942 
	C4.780841,69.508537 3.163820,66.890633 1.239848,64.660278 
	C1.000000,61.969406 1.000000,58.938812 1.000000,55.454109 
z"/>
<path opacity="1.000000" stroke="none" 
	d="
M59.001717,123.999802 
	C52.874958,127.097557 47.120193,130.122284 40.649830,133.523148 
	C35.465847,125.432114 30.363562,117.468590 25.036076,109.153587 
	C48.314533,98.743286 70.648064,88.755569 93.154945,78.690323 
	C95.521042,87.116127 97.777504,95.151482 100.089340,103.384056 
	C86.450508,110.265404 72.912109,117.096085 59.001717,123.999802 
z"/>
</svg>